:SAMPLES-PER-SECOND 30
:FULLY-SPECIFIED
:DEGREES
67
root  35.02585944 36.55245924 -14.50889918 10.36787796 1.239618301 2.759273291
lowerback  -8.536750793 1.017729759 0.8331753016
upperback  -3.650079966 0.9803910255 -3.17057991
thorax  1.076969981 0.3058969975 -3.660350084
lowerneck  -14.7439003 3.430619955 3.358109951
upperneck  11.19760036 3.173510075 4.221260071
head  5.795559883 1.968379974 1.082839966
lclavicle  0 -4.497500157e-015 -2.743230041e-014
lhumerus  -44.74459839 27.4116993 68.65550232
lradius  -0.4868324995 -6.507048965e-006 27.77160072
lwrist  4.824992743e-007 -3.790274832e-007 -30.6140995
lhand  -4.41407394e-031 -36.87279892 -10.85480022
lfingers  90 7.125020027 -90
lthumb  94.84152547 -25.68831899 101.0564351
rclavicle  0 -4.497500157e-015 -2.743230041e-014
rhumerus  -6.215610504 7.640119553 -74.67060089
rradius  -5.16745672e-007 2.214343908e-008 91.21640015
rwrist  1.129822067e-006 0.001802438172 -173.6609955
rhand  -1.765919917e-031 1.152750015 -8.096119881
rfingers  -90 -7.125020027 -90
rthumb  -86.03717538 -7.825939609 -63.03483264
rfemur  -12.38516808 14.69050598 13.58695602
rtibia  -0.3906998634 0.8191091418 19.62563705
rfoot  -0.01935452782 -18.69822311 -39.66119385
rtoes  4.170024923 19.57787589 -102.2752676
lfemur  -9.806379318 -17.00475121 -18.60034561
ltibia  2.522797823 1.524153352 14.51688576
lfoot  0.3214462101 -28.11191368 33.09534454
ltoes  -8.569668633 -18.13930878 -115.8286748
68
root  35.02425246 36.55191857 -14.50384395 10.37827206 1.314187288 2.740355492
lowerback  -8.529060364 1.102959991 0.9207544923
upperback  -3.686209917 1.083490014 -3.213639975
thorax  1.044980049 0.354144007 -3.745340109
lowerneck  -14.71780014 3.343950033 3.247020006
upperneck  11.20129967 3.070780039 4.292550087
head  5.790019989 1.918730021 1.11311996
lclavicle  0 -4.497500157e-015 -2.743230041e-014
lhumerus  -44.75970078 27.37190056 68.6765976
lradius  -0.4871383905 -6.507048965e-006 27.75039864
lwrist  4.824992743e-007 -3.790274832e-007 -30.67609978
lhand  -4.417841977e-031 -36.93790054 -10.8118
lfingers  90 7.125020027 -90
lthumb  94.86302855 -25.6436572 101.1221319
rclavicle  0 -4.497500157e-015 -2.743230041e-014
rhumerus  -4.550220013 7.773058891 -74.09870148
rradius  -5.16745672e-007 2.214343908e-008 91.37069702
rwrist  1.129822067e-006 0.001802438172 -173.7510071
rhand  -1.76628836e-031 1.642639995 -8.176600456
rfingers  -90 -7.125020027 -90
rthumb  -85.97684608 -7.786003595 -62.5633107
rfemur  -12.38126183 14.64551258 13.62295055
rtibia  -0.3811173737 0.8519343734 19.62307358
rfoot  -0.01495425496 -18.66341972 -39.65927887
rtoes  4.154842013 19.58098249 -102.2299608
lfemur  -9.794048309 -16.98872757 -18.56630898
ltibia  2.53842783 1.56296587 14.47788715
lfoot  0.3179331124 -28.15911865 33.05426407
ltoes  -8.573361558 -18.13760965 -115.8405372
69
root  35.02250731 36.55058493 -14.49899448 10.40008354 1.381391883 2.708227158
lowerback  -8.496509552 1.169579864 0.9540461302
upperback  -3.722110033 1.16624999 -3.23935008
thorax  0.9970290065 0.3928689957 -3.783639908
lowerneck  -14.66259956 3.293129921 3.141170025
upperneck  11.19229984 3.020590305 4.346580029
head  5.775619984 1.893309951 1.141260028
lclavicle  0 -4.497500157e-015 -2.743230041e-014
lhumerus  -44.78239822 27.32690048 68.69490051
lradius  -0.4874333441 -6.507048965e-006 27.73290062
lwrist  4.824992743e-007 -3.790274832e-007 -30.8003006
lhand  -0 -36.95880127 -10.78439999
lfingers  90 7.125020027 -90
lthumb  94.8670527 -25.6161385 101.1420192
rclavicle  0 -4.497500157e-015 -2.743230041e-014
rhumerus  -2.894839764 8.055699348 -73.34899902
rradius  -5.16745672e-007 2.214343908e-008 91.6332016
rwrist  1.129822067e-006 0.001802438172 -174.0180054
rhand  -1.76633735e-031 1.697149992 -8.20018959
rfingers  -90 -7.125020027 -90
rthumb  -85.97691577 -7.768683798 -62.51182734
rfemur  -12.37236595 14.6314621 13.65959358
rtibia  -0.3614443541 0.8812548518 19.58022881
rfoot  0.009152766317 -18.62201309 -39.66221237
rtoes  4.148917121 19.58219156 -102.2122824
lfemur  -9.830785751 -17.02625656 -18.49941063
ltibia  2.519628525 1.583630562 14.50547409
lfoot  0.3241311908 -28.19264412 33.05750275
ltoes  -8.571288084 -18.13856378 -115.8338766
70
root  35.02092737 36.54948257 -14.49539305 10.40830898 1.465663075 2.703401804
lowerback  -8.481230736 1.201220036 0.9661248922
upperback  -3.75541997 1.203349948 -3.267169952
thorax  0.957652986 0.4086759984 -3.816359997
lowerneck  -14.6274004 3.290590048 3.117680073
upperneck  11.1882 3.00851965 4.434370041
head  5.767049789 1.891610026 1.170809984
lclavicle  0 -4.497500157e-015 -2.743230041e-014
lhumerus  -44.82450104 27.30010033 68.65519714
lradius  -0.4877176285 -6.507048965e-006 27.75099945
lwrist  4.824992743e-007 -3.790274832e-007 -30.80750084
lhand  -0 -36.96649933 -10.76809978
lfingers  90 7.125020027 -90
lthumb  94.86715748 -25.5998135 101.148714
rclavicle  0 -4.497500157e-015 -2.743230041e-014
rhumerus  -1.196599364 8.256479263 -72.86840057
rradius  -5.16745672e-007 2.214343908e-008 91.76999664
rwrist  1.129822067e-006 0.001802438172 -174.1679993
rhand  -1.766216462e-031 1.559190035 -8.21914959
rfingers  -90 -7.125020027 -90
rthumb  -86.01325473 -7.742751623 -62.64720439
rfemur  -12.35272217 14.63096046 13.67332649
rtibia  -0.3530906141 0.9062834978 19.56296349
rfoot  -0.01005712431 -18.58754539 -39.75734329
rtoes  4.165094407 19.57888603 -102.2605539
lfemur  -9.818517685 -17.02964783 -18.48614883
ltibia  2.543868303 1.631756783 14.46683311
lfoot  0.3332732618 -28.27293587 33.02812958
ltoes  -8.578025173 -18.13546259 -115.8555191
71
root  35.01993314 36.54923326 -14.49232627 10.43010044 1.556242943 2.712388992
lowerback  -8.442939758 1.23427999 1.032779574
upperback  -3.780100107 1.239199996 -3.324790001
thorax  0.9162330031 0.4234049916 -3.911499977
lowerneck  -14.61750031 3.275369883 3.135200024
upperneck  11.15779972 2.968330145 4.528759956
head  5.755430222 1.877660036 1.193420053
lclavicle  0 -4.497500157e-015 -2.743230041e-014
lhumerus  -44.78829956 27.23959923 68.58249664
lradius  -0.4879915118 -6.507048965e-006 27.72770119
lwrist  4.824992743e-007 -3.790274832e-007 -30.85619926
lhand  -4.417488415e-031 -36.93180084 -10.74450016
lfingers  90 7.125020027 -90
lthumb  94.84582697 -25.5779152 101.1094848
rclavicle  0 -4.497500157e-015 -2.743230041e-014
rhumerus  0.4924137294 8.323359489 -72.46399689
rradius  -5.16745672e-007 2.214343908e-008 91.85469818
rwrist  1.129822067e-006 0.001802438172 -174.5839996
rhand  -1.766128616e-031 1.450719953 -8.131480217
rfingers  -90 -7.125020027 -90
rthumb  -85.99423847 -7.813600183 -62.74712562
rfemur  -12.35190296 14.59051418 13.67277622
rtibia  -0.3503781557 0.8981661201 19.55850029
rfoot  -0.040589571 -18.60748863 -39.8427887
rtoes  4.156651434 19.58061289 -102.2353599
lfemur  -9.830457687 -17.04992485 -18.48792839
ltibia  2.566571712 1.659502745 14.43945599
lfoot  0.3296200335 -28.31473351 32.96957779
ltoes  -8.570867318 -18.13875736 -115.8325251
72
root  35.02141397 36.54905605 -14.49024321 10.4455328 1.631002784 2.70142436
lowerback  -8.42095089 1.257099867 1.036249995
upperback  -3.805140018 1.265750051 -3.361170053
thorax  0.8810260296 0.4341810048 -3.949369907
lowerneck  -14.60499954 3.251689911 3.130300045
upperneck  11.13619995 2.926599979 4.596749783
head  5.746039867 1.860689998 1.211240053
lclavicle  0 -4.497500157e-015 -2.743230041e-014
lhumerus  -44.75429916 27.19059944 68.52310181
lradius  -0.4882552028 -6.507048965e-006 27.68510056
lwrist  4.824992743e-007 -3.790274832e-007 -30.84700012
lhand  -4.416740957e-031 -36.91889954 -10.75030041
lfingers  90 7.125020027 -90
lthumb  94.84098415 -25.58407102 101.0961775
rclavicle  0 -4.497500157e-015 -2.743230041e-014
rhumerus  2.189100027 8.48814106 -71.96900177
rradius  -5.16745672e-007 2.214343908e-008 91.90329742
rwrist  1.129822067e-006 0.001802438172 -174.8999939
rhand  -1.766510511e-031 1.877159953 -8.203920364
rfingers  -90 -7.125020027 -90
rthumb  -85.94253579 -7.777292127 -62.3369826
rfemur  -12.33572674 14.554492 13.69244576
rtibia  -0.3500985205 0.9112862945 19.51753426
rfoot  -0.02000546083 -18.56459045 -39.85505676
rtoes  4.143133575 19.58337005 -102.1950268
lfemur  -9.89369297 -17.10468292 -18.45189476
ltibia  2.533942699 1.645284772 14.51846695
lfoot  0.3188791573 -28.31587601 32.91087341
ltoes  -8.576470913 -18.13617831 -115.8505258
73
root  35.02107755 36.5496658 -14.48670935 10.47990227 1.71617198 2.70121479
lowerback  -8.349189758 1.294280052 1.09537065
upperback  -3.839869976 1.307139993 -3.413110018
thorax  0.8111180067 0.4512169957 -4.034349918
lowerneck  -14.58390045 3.210930109 3.163269997
upperneck  11.10480022 2.86303997 4.614299774
head  5.733709812 1.830890059 1.204820037
lclavicle  0 -4.497500157e-015 -2.743230041e-014
lhumerus  -44.68629837 27.13100052 68.45909882
lradius  -0.4885089695 -6.507048965e-006 27.58120155
lwrist  4.824992743e-007 -3.790274832e-007 -30.82740021
lhand  -4.416926341e-031 -36.92210007 -10.73649979
lfingers  90 7.125020027 -90
lthumb  94.83951067 -25.57037017 101.0982739
rclavicle  0 -4.497500157e-015 -2.743230041e-014
rhumerus  3.88209033 8.611909866 -71.61070251
rradius  -5.16745672e-007 2.214343908e-008 91.80470276
rwrist  1.129822067e-006 0.001802438172 -175.0500031
rhand  -1.767284139e-031 2.529230118 -8.186260223
rfingers  -90 -7.125020027 -90
rthumb  -85.80148454 -7.83644224 -61.70170521
rfemur  -12.3393507 14.48356628 13.70485973
rtibia  -0.3514760137 0.9047180414 19.48897552
rfoot  -0.01642885804 -18.56005096 -39.87670135
rtoes  4.169918366 19.57789773 -102.2749496
lfemur  -9.965491295 -17.14807892 -18.41473961
ltibia  2.522672892 1.655484319 14.55924225
lfoot  0.3153996468 -28.33961296 32.85474014
ltoes  -8.604960611 -18.1230334 -115.9420832
